<?xml version="1.0" encoding="UTF-8"?>
<!DOCTYPE svg PUBLIC "-//W3C//DTD SVG 1.1//EN" "http://www.w3.org/Graphics/SVG/1.1/DTD/svg11.dtd">
<svg xmlns="http://www.w3.org/2000/svg" version="1.1" width="900px" height="900px" style="shape-rendering:geometricPrecision; text-rendering:geometricPrecision; image-rendering:optimizeQuality; fill-rule:evenodd; clip-rule:evenodd" xmlns:xlink="http://www.w3.org/1999/xlink">
<g><path style="opacity:1" fill="#0894fe" d="M 694.5,148.5 C 654.862,166.321 615.528,184.654 576.5,203.5C 542.868,182.21 530.035,151.877 538,112.5C 548.336,79.4942 570.503,59.9942 604.5,54C 645.448,51.0494 674.281,68.2161 691,105.5C 695.416,119.569 696.583,133.902 694.5,148.5 Z"/></g>
<g><path style="opacity:1" fill="#11fe91" d="M 694.5,148.5 C 681.976,193.446 652.309,214.946 605.5,213C 595.176,211.725 585.509,208.558 576.5,203.5C 615.528,184.654 654.862,166.321 694.5,148.5 Z"/></g>
<g><path style="opacity:1" fill="#0f94fe" d="M 533.5,223.5 C 531.297,223.604 529.297,224.27 527.5,225.5C 493.064,241.719 458.398,257.385 423.5,272.5C 402.988,266.274 382.488,259.941 362,253.5C 323.938,280.784 285.772,307.951 247.5,335C 226.327,342.823 210.16,336.99 199,317.5C 193.134,301.13 196.634,286.963 209.5,275C 251.112,245.721 292.446,216.054 333.5,186C 342.84,179.416 353.174,177.082 364.5,179C 414.229,189.746 463.895,200.746 513.5,212C 520.077,216.097 526.744,219.93 533.5,223.5 Z"/></g>
<g><path style="opacity:1" fill="#18ff91" d="M 533.5,223.5 C 545.139,229.988 556.806,236.488 568.5,243C 588.912,261.721 593.745,283.888 583,309.5C 579.632,316.915 575.799,323.915 571.5,330.5C 557.107,295.381 542.44,260.381 527.5,225.5C 529.297,224.27 531.297,223.604 533.5,223.5 Z"/></g>
<g><path style="opacity:1" fill="#fefefe" d="M 527.5,225.5 C 542.44,260.381 557.107,295.381 571.5,330.5C 547.705,379.423 523.372,428.09 498.5,476.5C 506.532,483.841 514.532,491.174 522.5,498.5C 512.217,502.975 502.217,507.975 492.5,513.5C 451.914,473.248 411.247,432.915 370.5,392.5C 393.697,354.611 417.03,316.778 440.5,279C 434.822,276.672 429.155,274.506 423.5,272.5C 458.398,257.385 493.064,241.719 527.5,225.5 Z"/></g>
<g><path style="opacity:1" fill="#14fe90" d="M 689.5,410.5 C 667.043,423.231 644.043,435.231 620.5,446.5C 609.988,422.797 599.988,398.797 590.5,374.5C 596.885,361.397 603.552,348.397 610.5,335.5C 621.308,360.282 631.975,385.115 642.5,410C 658.163,410.5 673.83,410.667 689.5,410.5 Z"/></g>
<g><path style="opacity:1" fill="#fefefe" d="M 590.5,374.5 C 599.988,398.797 609.988,422.797 620.5,446.5C 612.052,451.226 603.385,455.726 594.5,460C 593.748,460.671 593.414,461.504 593.5,462.5C 585.608,446.378 577.942,430.045 570.5,413.5C 576.941,400.282 583.608,387.282 590.5,374.5 Z"/></g>
<g><path style="opacity:1" fill="#ff4242" d="M 370.5,392.5 C 411.247,432.915 451.914,473.248 492.5,513.5C 468.088,526.706 443.422,539.372 418.5,551.5C 399.889,540.858 381.556,529.691 363.5,518C 337.259,491.848 332.093,462.014 348,428.5C 355.761,416.64 363.261,404.64 370.5,392.5 Z"/></g>
<g><path style="opacity:1" fill="#fedd33" d="M 689.5,410.5 C 711.836,410.333 734.169,410.5 756.5,411C 778.205,417.577 787.371,432.077 784,454.5C 779.65,468.849 770.15,477.683 755.5,481C 709.833,481.667 664.167,481.667 618.5,481C 607.178,478.691 598.845,472.524 593.5,462.5C 593.414,461.504 593.748,460.671 594.5,460C 603.385,455.726 612.052,451.226 620.5,446.5C 644.043,435.231 667.043,423.231 689.5,410.5 Z"/></g>
<g><path style="opacity:1" fill="#ffdc32" d="M 522.5,498.5 C 548.129,520.959 573.629,543.625 599,566.5C 605.259,575.203 607.592,584.869 606,595.5C 593.766,662.005 580.766,728.338 567,794.5C 554.462,817.131 535.628,824.965 510.5,818C 488.006,807.513 478.84,790.013 483,765.5C 492.918,713.91 503.085,662.41 513.5,611C 481.433,591.642 449.766,571.809 418.5,551.5C 443.422,539.372 468.088,526.706 492.5,513.5C 502.217,507.975 512.217,502.975 522.5,498.5 Z"/></g>
<g><path style="opacity:1" fill="#ff4241" d="M 380.5,571.5 C 324.75,600.877 268.75,630.044 212.5,659C 237.498,659.5 262.498,659.667 287.5,659.5C 235.335,660.665 183.002,660.832 130.5,660C 104.702,656.368 90.7025,641.534 88.5,615.5C 90.5507,592.627 102.551,578.127 124.5,572C 173.5,571.667 222.5,571.333 271.5,571C 285.374,550.087 298.874,528.921 312,507.5C 319.151,522.326 328.984,535.16 341.5,546C 354.565,554.524 367.565,563.024 380.5,571.5 Z"/></g>
<g><path style="opacity:1" fill="#ffdb32" d="M 380.5,571.5 C 381.376,571.369 382.043,571.702 382.5,572.5C 368.195,593.305 353.695,613.972 339,634.5C 325.289,649.939 308.122,658.272 287.5,659.5C 262.498,659.667 237.498,659.5 212.5,659C 268.75,630.044 324.75,600.877 380.5,571.5 Z"/></g>
</svg>
